# xmcd
# Track frame offsets:
# 150
# 19797
# 38127
# 55277
#
# Disc length: 1313 seconds
# Revision: 2
# Processed by: cddbd v1.5PL3 Copyright (c) Steve Scherf et al.
# Submitted via: VisiTrax 2.9.9.202 - For more info visit www.synapsa.com
#
DISCID=2b051f04
DTITLE=Jon Secada - Stop
DYEAR=2000
DGENRE=Pop
TTITLE0=Stop
TTITLE1=Stop (Pablo Flores Mix)
TTITLE2=Stop (Jonathan Peters Radio Edit)
TTITLE3=Stop (Jonathan Peters Club Mix)
EXTD=
EXTT0=
EXTT1=
EXTT2=
EXTT3=
PLAYORDER=
